# xmcd CD database file
#
# Track frame offsets:
#	150
#	15269
#	29564
#	44948
#	56821
#	70731
#	84374
#	97647
#	109729
#	122648
#	134838
#	147878
#	160654
#	175515
#	189866
#	204563
#	217609
#	232035
#
# Disc length: 3261 seconds
#
# Revision: 0
# Processed by: cddbd v1.5.2PL0 Copyright (c) Steve Scherf et al.
# Submitted via: CDex 1.51
#
DISCID=ef0cbb12
DTITLE=Big Joe Williams - Baby Please Don't Go  1935 - 1951
DYEAR=1935
DGENRE=Blues
TTITLE0=49 HIGWAY BLUES
TTITLE1=MY GREY ONY
TTITLE2=BABY PLEASE DON'T GO
TTITLE3=WORRIED MAN BLUES
TTITLE4=I KNOW YOU GONNA MISS ME
TTITLE5=ROOTIN' GROUND HOG
TTITLE6=BROTHER JAMES
TTITLE7=I WON'T BE IN HARD LUCK NO MORE
TTITLE8=CRAWLIN' KING SNAKE
TTITLE9=THROW A BOOGIE WOOGIE
TTITLE10=NORTH WIND BLUES
TTITLE11=PLEASE DON'T GO
TTITLE12=HIGHWAY 49
TTITLE13=SOMEDAY BABY
TTITLE14=BREAK'EM ON DOWN
TTITLE15=DROP DOWN BLUES
TTITLE16=SOMEBODY'S BEEN WORRYIN'
TTITLE17=VITAMIN A
EXTD=YEAR: 1935
EXTT0=
EXTT1=
EXTT2=
EXTT3=
EXTT4=
EXTT5=
EXTT6=
EXTT7=
EXTT8=
EXTT9=
EXTT10=
EXTT11=
EXTT12=
EXTT13=
EXTT14=
EXTT15=
EXTT16=
EXTT17=
PLAYORDER=
